<?xml version="1.0" encoding="UTF-8" standalone="no"?>
<svg
   xmlns:dc="http://purl.org/dc/elements/1.1/"
   xmlns:cc="http://creativecommons.org/ns#"
   xmlns:rdf="http://www.w3.org/1999/02/22-rdf-syntax-ns#"
   xmlns:svg="http://www.w3.org/2000/svg"
   xmlns="http://www.w3.org/2000/svg"
   xmlns:sodipodi="http://sodipodi.sourceforge.net/DTD/sodipodi-0.dtd"
   xmlns:inkscape="http://www.inkscape.org/namespaces/inkscape"
   width="240mm"
   height="120mm"
   viewBox="0 0 240 120"
   version="1.1"
   id="svg8"
   inkscape:version="1.0.1 (3bc2e813f5, 2020-09-07)"
   sodipodi:docname="skizze_elastomere.svg">
  <defs
     id="defs2">
    <marker
       style="overflow:visible"
       id="marker1235"
       refX="0.0"
       refY="0.0"
       orient="auto"
       inkscape:stockid="Arrow1Lstart"
       inkscape:isstock="true">
      <path
         transform="scale(0.8) translate(12.5,0)"
         style="fill-rule:evenodd;stroke:#000000;stroke-width:1pt;stroke-opacity:1;fill:#000000;fill-opacity:1"
         d="M 0.0,0.0 L 5.0,-5.0 L -12.5,0.0 L 5.0,5.0 L 0.0,0.0 z "
         id="path1233" />
    </marker>
    <marker
       style="overflow:visible"
       id="marker1189"
       refX="0.0"
       refY="0.0"
       orient="auto"
       inkscape:stockid="Arrow1Lstart"
       inkscape:isstock="true">
      <path
         transform="scale(0.8) translate(12.5,0)"
         style="fill-rule:evenodd;stroke:#000000;stroke-width:1pt;stroke-opacity:1;fill:#000000;fill-opacity:1"
         d="M 0.0,0.0 L 5.0,-5.0 L -12.5,0.0 L 5.0,5.0 L 0.0,0.0 z "
         id="path1187" />
    </marker>
    <marker
       style="overflow:visible"
       id="marker1155"
       refX="0.0"
       refY="0.0"
       orient="auto"
       inkscape:stockid="Arrow1Lstart"
       inkscape:isstock="true">
      <path
         transform="scale(0.8) translate(12.5,0)"
         style="fill-rule:evenodd;stroke:#000000;stroke-width:1pt;stroke-opacity:1;fill:#000000;fill-opacity:1"
         d="M 0.0,0.0 L 5.0,-5.0 L -12.5,0.0 L 5.0,5.0 L 0.0,0.0 z "
         id="path1153" />
    </marker>
    <marker
       style="overflow:visible;"
       id="Arrow1Lend"
       refX="0.0"
       refY="0.0"
       orient="auto"
       inkscape:stockid="Arrow1Lend"
       inkscape:isstock="true">
      <path
         transform="scale(0.8) rotate(180) translate(12.5,0)"
         style="fill-rule:evenodd;stroke:#000000;stroke-width:1pt;stroke-opacity:1;fill:#000000;fill-opacity:1"
         d="M 0.0,0.0 L 5.0,-5.0 L -12.5,0.0 L 5.0,5.0 L 0.0,0.0 z "
         id="path840" />
    </marker>
  </defs>
  <sodipodi:namedview
     id="base"
     pagecolor="#ffffff"
     bordercolor="#666666"
     borderopacity="1.0"
     inkscape:pageopacity="0.0"
     inkscape:pageshadow="2"
     inkscape:zoom="1.2946626"
     inkscape:cx="459.36528"
     inkscape:cy="226.64111"
     inkscape:document-units="mm"
     inkscape:current-layer="layer1"
     showgrid="true"
     showborder="true"
     width="200mm"
     showguides="true"
     inkscape:guide-bbox="true"
     inkscape:window-width="1324"
     inkscape:window-height="784"
     inkscape:window-x="22"
     inkscape:window-y="77"
     inkscape:window-maximized="1"
     inkscape:document-rotation="0"
     inkscape:snap-grids="false"
     inkscape:snap-page="false">
    <inkscape:grid
       type="xygrid"
       id="grid8" />
  </sodipodi:namedview>
  <metadata
     id="metadata5">
    <rdf:RDF>
      <cc:Work
         rdf:about="">
        <dc:format>image/svg+xml</dc:format>
        <dc:type
           rdf:resource="http://purl.org/dc/dcmitype/StillImage" />
        <dc:title />
      </cc:Work>
    </rdf:RDF>
  </metadata>
  <g
     inkscape:label="Layer 1"
     inkscape:groupmode="layer"
     id="layer1"
     transform="translate(0,-177)">
    <path
       style="fill:none;stroke:#000000;stroke-width:0.264583px;stroke-linecap:butt;stroke-linejoin:miter;stroke-opacity:1"
       d="m 21.032543,207.83049 c 3.65304,1.87317 7.230047,-0.50358 10.162353,-2.63998 1.506717,-1.09775 2.674726,-2.67008 4.163943,-3.80468 0.329745,-0.25123 0.750949,-0.36567 1.077386,-0.62118 0.330327,-0.25856 0.546161,-0.64361 0.873551,-0.90588 1.309262,-1.04881 2.646577,-1.91205 3.901885,-3.0541 0.34861,-0.31716 0.573916,-0.78812 0.990028,-1.00941 0.749459,-0.39855 1.629222,-0.48579 2.416834,-0.80234 0.867349,-0.34861 1.578658,-1.02301 2.445951,-1.37176 0.292148,-0.11747 0.636157,-0.0469 0.931791,-0.15529 0.489048,-0.17931 0.91199,-0.51063 1.397691,-0.69882 2.409767,-0.93366 6.498606,-0.74089 8.648192,0.80235 0.716301,0.51425 1.089012,1.43386 1.71799,1.99293 0.265898,0.23634 0.693298,0.28179 0.902671,0.56941 0.245091,0.33667 0.241461,0.79735 0.378544,1.19058 0.270063,0.77469 0.754584,1.42104 1.019141,2.19999 0.266372,0.78429 0.429712,1.83706 0.495014,2.63998 0.0245,0.30112 -0.09543,0.61113 -0.02911,0.90588 0.06417,0.28519 0.327268,0.49541 0.407657,0.77646 0.535979,1.87388 -0.02492,4.022 0,5.92703 0.02014,1.53815 0.359206,1.08144 0.116469,2.71763 -0.047,0.31681 -0.311618,0.58571 -0.320299,0.90587 -0.01146,0.42308 0.290015,0.82005 0.262067,1.24235 -0.03223,0.48703 -0.356118,0.91625 -0.436782,1.39764 -0.281088,1.67755 0.0011,3.57845 -0.116469,5.27997 -0.102132,1.47842 -0.338403,3.02121 -0.611492,4.47762 -0.059,0.31466 -0.220644,0.61185 -0.232947,0.93176 0.299609,5.39263 0.119213,-0.75788 -0.17471,3.72704 -0.121092,1.84772 0.471575,3.65818 0.640604,5.46115 0.05959,0.63564 -0.176818,1.30183 0,1.91528 0.139845,0.48518 0.794493,0.72325 0.902679,1.21646 0.207026,0.94383 -0.122082,1.94028 0,2.89881 0.09047,0.71035 0.854437,1.61321 1.077378,2.27764 0.205629,0.61283 0.231066,1.2766 0.436782,1.8894 0.417825,1.24464 0.699701,1.27458 1.310328,2.32939 0.312745,0.54024 0.623083,1.08469 0.873559,1.65647 0.331917,0.75768 0.244985,1.68958 0.698844,2.38115 0.218826,0.33344 0.621191,0.50039 0.931788,0.75059 0.174712,0.57804 0.245181,1.19854 0.524134,1.73411 0.614244,1.17931 1.653355,1.32633 2.475072,2.1741 2.872795,2.9639 -1.171306,-0.6197 1.164738,2.27764 0.191325,0.23729 0.550431,0.26328 0.815318,0.41412 3.093757,1.76164 6.795781,1.8742 9.900288,0.0259 1.375735,-0.81907 1.63426,-2.12675 2.591549,-3.28705 2.302319,-2.79056 3.794659,-6.28546 4.600718,-9.83523 0.129148,-0.56875 0.09374,-1.16774 0.232955,-1.73411 0.351028,-1.42805 1.16695,-2.69933 1.543274,-4.14115 0.124453,-0.47681 0.121569,-0.98673 0.29118,-1.4494 0.116755,-0.31849 0.437184,-0.53538 0.553259,-0.85411 0.975559,-2.67882 1.325793,-5.51915 2.212999,-8.20467 0.41951,-1.26983 0.932408,-2.50923 1.485048,-3.72703 0.158708,-0.34973 0.503809,-0.59878 0.640612,-0.95765 0.266369,-0.69874 0.306747,-1.4681 0.553246,-2.1741 0.192389,-0.55103 0.504717,-1.05254 0.757074,-1.57881 0.194125,-0.56078 0.404236,-1.11628 0.582374,-1.68234 0.210241,-0.66808 0.253897,-1.40024 0.582372,-2.01882 0.260156,-0.48992 0.850766,-0.74046 1.135616,-1.21646 0.45345,-0.75774 0.64918,-1.64521 1.04827,-2.43293 0.26286,-0.51885 0.71155,-0.93696 0.93179,-1.47528 1.19039,-2.90975 -0.77073,-0.44233 1.22298,-3.67528 0.34188,-0.55438 0.92721,-0.92856 1.28121,-1.47528 0.42885,-0.66232 0.65712,-1.43709 1.04826,-2.12235 0.28027,-0.491 0.67899,-0.90758 0.96092,-1.39763 0.59296,-1.03069 1.02297,-2.15342 1.65975,-3.15763 0.62159,-0.98025 1.65551,-1.64322 2.32948,-2.58823 1.31298,-1.84099 0.13358,-1.12993 2.00918,-2.6141 0.35505,-0.28095 0.8209,-0.40424 1.16473,-0.69881 1.2479,-1.06912 2.1887,-2.47404 3.63981,-3.33881 1.35904,-0.80991 1.19079,-0.2846 2.59156,-0.82823 0.28816,-0.11184 0.49642,-0.38412 0.78619,-0.49176 0.47779,-0.17748 3.04494,-0.57023 3.55245,-0.59529 1.4645,-0.0723 5.44232,1.58904 6.37696,2.71763 0.27413,0.33102 0.25594,0.83341 0.49501,1.19058 0.54255,0.8106 1.84844,1.44349 2.21301,2.38116 0.3677,0.94575 0.48203,1.9769 0.84444,2.92469 1.28695,3.36576 0.16478,-0.87143 1.04826,1.86352 0.18911,0.58543 0.26253,1.20524 0.4659,1.78587 0.40965,1.16962 1.18687,2.14349 1.60151,3.33881 0.61327,1.76792 0.77955,3.56328 1.10651,5.3835 0.0951,0.52925 0.35935,1.0208 0.43677,1.55293 0.0696,0.4781 -0.0526,0.96914 0,1.4494 0.30608,2.79482 1.47608,5.53776 1.65976,8.35996 0.0409,0.62876 -0.0762,1.25956 -0.0582,1.8894 0.0244,0.85185 0.27542,1.68543 0.3203,2.53645 0.11525,2.18551 0.23637,4.39995 0.52413,6.57408 0.0485,0.36629 0.26221,0.69628 0.3203,1.06117 0.19416,1.21954 0.37429,2.44378 0.4659,3.67528 0.0283,0.38053 -0.12302,0.75728 -0.11647,1.13881 0.0574,3.34133 0.31307,6.95606 1.04826,10.22348 0.35795,1.59085 1.14907,2.23253 1.65976,3.70115 0.17852,0.51338 0.21326,1.07124 0.40766,1.57881 0.58462,1.52645 0.35971,0.2568 1.16473,1.4494 0.88345,1.30878 1.20312,2.62675 2.62067,3.57175 0.61266,0.40842 1.69752,0.29239 2.24212,0.77647 0.25225,0.22421 0.31883,0.6174 0.58238,0.82822 0.15396,0.12317 0.40462,0.0182 0.58237,0.10353 0.31767,0.15248 0.54284,0.47366 0.87355,0.59529 0.25519,0.0939 0.55736,-0.0601 0.81531,0.0259 0.30541,0.1018 0.52887,0.37075 0.81533,0.51765 0.7075,0.36281 1.94366,0.82499 2.70802,0.98352 0.13654,0.0283 1.2037,0.0152 1.45592,0.0518 0.2849,0.0414 0.55885,0.21744 0.84444,0.18118 0.62926,-0.0799 3.0922,-1.11044 3.52333,-1.50117 0.5051,-0.45776 0.87166,-1.36866 1.39769,-1.78587 0.45737,-0.36276 1.0601,-0.5131 1.51416,-0.88 0.98493,-0.79588 1.49046,-2.31153 2.18389,-3.3388 1.05246,-1.55915 -0.23294,0.57176 0.96091,-1.1647 1.03815,-1.50998 0.56778,-1.14422 1.65976,-2.84704 0.98501,-1.53603 0.66944,-0.46635 1.60151,-2.35529 0.48367,-0.98021 0.74529,-2.05732 1.19386,-3.05409 0.54856,-1.21897 1.09395,-2.4414 1.71799,-3.62351 0.23124,-0.43804 0.60481,-0.79398 0.81532,-1.24235 0.30747,-0.65488 0.45894,-1.3731 0.72796,-2.04469 0.65376,-1.63203 1.39459,-3.22882 2.15476,-4.81409 0.75147,-1.56709 1.10413,-1.42691 1.83447,-3.28704 0.23317,-0.59387 0.24396,-1.25535 0.43678,-1.86352 0.10964,-0.3458 0.34505,-0.64148 0.4659,-0.98352 2.8888,-8.17629 -1.19948,2.92944 1.07738,-3.88233 0.95901,-2.86911 2.60861,-5.83206 3.34863,-8.74819 0.16513,-0.65073 0.13983,-1.33885 0.29118,-1.99293 0.30266,-1.30799 0.76588,-2.00105 1.19385,-3.26116 0.2811,-0.82764 0.43417,-1.69833 0.75709,-2.51057 0.13725,-0.34521 0.45698,-0.59391 0.61149,-0.93176 1.11592,-2.44008 1.85211,-5.18085 3.1448,-7.53172 0.21553,-0.39196 0.71254,-0.55504 0.99002,-0.90588 0.4176,-0.52803 0.74165,-1.12472 1.0774,-1.70822 1.66999,-2.9023 2.62701,-3.79955 5.18308,-5.97879 0.16199,-0.13811 0.23598,-0.3952 0.43677,-0.46589 1.24731,-0.43908 2.62575,-0.57945 3.93101,-0.77646 1.33653,-0.20173 2.62438,-0.46064 3.96011,-0.0777 3.90363,1.11929 4.86018,4.52181 6.02754,7.89408 0.14188,0.40988 0.80541,1.62483 0.90265,2.14822 0.11553,0.62185 0.0539,1.26855 0.17473,1.8894 0.47743,2.454 0.58313,0.67406 0.99001,3.33881 0.0415,1.30738 0.0152,1.95084 0.20384,3.18351 0.0969,0.63311 0.31538,1.24982 0.34941,1.8894 0.0345,0.64796 -0.15981,1.29245 -0.14559,1.94116 0.0782,3.56992 0.4471,0.50772 0.37854,4.27057 -0.0253,1.39152 -0.22847,2.77568 -0.26206,4.16703 -0.015,0.6222 0.14544,1.24181 0.11647,1.86352 -0.0393,0.84273 -0.27769,1.66801 -0.32029,2.51058 -0.1124,2.22281 0.0296,4.47886 0,6.70349 -0.0282,2.11976 -0.38899,4.29552 -0.2912,6.41878 0.0317,0.68915 0.29211,1.3554 0.32031,2.0447 0.0304,0.74292 -0.18633,1.48344 -0.14559,2.22587 0.0375,0.68363 0.31309,1.33728 0.37855,2.01881 0.0709,0.73862 -0.0512,1.48821 0.0291,2.22587 0.0661,0.60702 0.29238,1.18625 0.40766,1.78587 0.38674,2.01164 0.40712,4.12676 1.39769,5.97879 0.42773,0.79969 1.55733,1.65843 2.09651,2.3294 0.56289,0.70046 1.12326,1.94184 1.77624,2.58821 0.49859,0.49354 1.18307,0.77939 1.65974,1.29412 2.11364,2.84739 1.14016,1.76034 2.73715,3.41645"
       id="path20" />
    <path
       style="fill:none;stroke:#000000;stroke-width:0.264583px;stroke-linecap:butt;stroke-linejoin:miter;stroke-opacity:1"
       d="m 27.380374,268.11014 c 0.146299,-2.87938 2.470997,-4.82249 3.727167,-7.24701 0.348181,-0.67202 0.68362,-1.35556 0.931791,-2.07058 0.170019,-0.48984 0.151334,-1.05044 0.407659,-1.50116 0.208291,-0.36626 0.681419,-0.51524 0.931794,-0.85412 0.187545,-0.25384 0.198364,-0.60288 0.349422,-0.87999 0.657368,-1.20591 1.938327,-2.44861 2.445951,-3.72704 0.209024,-0.52641 0.174115,-1.12825 0.37854,-1.65647 0.588137,-1.51968 1.623367,-2.66538 2.504188,-3.98585 1.213745,-1.81954 2.033577,-3.84374 3.086563,-5.74585 2.774641,-5.01208 -0.925406,2.13538 1.92182,-2.79528 0.512786,-0.88801 0.965316,-1.81464 1.339453,-2.76939 0.135993,-0.34704 0.114046,-0.74497 0.262067,-1.08705 1.082619,-2.50198 2.814262,-4.81906 4.076586,-7.22114 0.169431,-0.32242 0.194371,-0.70572 0.349425,-1.03529 0.553249,-1.07843 1.106501,-2.15685 1.659752,-3.23528 0.291185,-0.34509 0.640818,-0.64836 0.873557,-1.03529 0.26082,-0.43361 1.025556,-2.42958 1.281207,-2.95057 0.396947,-0.80892 1.112311,-1.44465 1.455926,-2.27763 0.246504,-0.59756 0.137186,-1.31661 0.436782,-1.8894 2.194443,-4.19551 0.109191,1.49773 1.980057,-1.86352 0.343831,-1.15056 0.539252,-2.05697 1.135618,-3.10586 0.907439,-1.59601 2.26138,-3.30115 3.55246,-4.58116 2.042064,-2.02454 -0.802021,0.87177 1.368565,-2.09645 0.0958,-0.13101 2.019226,-2.00871 2.300361,-2.19999 0.402754,-0.27402 0.95109,-0.31806 1.310336,-0.64706 0.312161,-0.28587 0.360794,-0.77186 0.611484,-1.11293 0.52179,-0.70989 3.41504,-2.59852 4.251301,-2.79528 3.133386,-0.73724 9.153742,-1.33783 12.084172,0.44 0.800028,0.48536 1.742342,1.77044 2.387721,2.45881 4.167328,4.44499 -1.453565,-1.59705 2.183884,1.73411 1.143839,1.04752 1.498264,2.64232 2.504192,3.80468 0.215108,0.24856 0.583506,0.33651 0.786201,0.59529 1.268381,1.61938 1.871395,3.95814 2.591541,5.84938 0.564023,1.48123 1.555845,2.82262 2.096534,4.29645 0.238636,0.65048 0.233627,1.37713 0.495009,2.01881 0.153866,0.37774 0.552667,0.61524 0.727962,0.98352 0.671951,1.41172 0.901229,3.06289 1.455925,4.52939 0.950823,2.51379 2.272223,4.82037 2.940973,7.42819 0.58543,2.28292 1.00863,4.61976 1.5724,6.91055 0.29922,1.21583 0.74371,2.39587 0.99003,3.62351 0.16846,0.8396 0.18886,1.70854 0.40766,2.53645 0.12389,0.46882 0.50956,0.84591 0.61148,1.32 0.19308,0.89815 0.10492,1.83838 0.26207,2.74351 0.0868,0.5 0.35201,0.95486 0.46589,1.4494 0.86494,3.75617 1.03813,7.99759 3.1448,11.3623 0.40412,0.64543 1.39996,1.34434 1.86358,1.94116 1.16208,1.49595 0.26073,1.06944 1.80535,2.27762 1.50959,1.18081 5.61019,1.69082 7.51257,1.50118 4.72891,-0.4714 5.69792,-1.20742 8.93938,-4.58115 1.6954,-1.76458 2.89388,-3.00155 4.16394,-4.96938 1.17661,-1.82301 2.5808,-3.51012 3.58158,-5.43527 0.35654,-0.68588 0.54091,-1.45044 0.87355,-2.14823 1.09638,-2.29988 2.7845,-4.33534 3.72717,-6.72936 0.29096,-0.73893 0.39316,-1.54468 0.69884,-2.27764 5.30574,-12.72237 -0.4033,1.37982 2.79538,-5.3835 1.24045,-2.62282 2.15749,-5.33073 3.46509,-7.94583 0.27553,-0.55104 0.69037,-1.02532 0.96092,-1.57882 0.34298,-0.70167 0.55,-1.46326 0.87355,-2.17411 1.13602,-2.49582 2.49283,-4.94675 3.72718,-7.4023 0.56623,-1.12646 1.06637,-1.65418 1.57238,-2.79528 0.31843,-0.71806 0.48247,-1.50287 0.84444,-2.19999 0.28384,-0.54662 0.7609,-0.97277 1.07738,-1.50116 0.40372,-0.67405 0.67,-1.42464 1.07739,-2.09646 0.4973,-0.82007 1.19355,-1.50814 1.68887,-2.3294 0.3413,-0.5659 0.57783,-1.19563 0.96091,-1.73411 3.72418,-5.23484 -0.21202,0.54766 2.67891,-2.63998 0.45821,-0.50524 0.71906,-1.16603 1.16473,-1.68235 0.3343,-0.38729 1.96186,-1.84753 2.56243,-2.17411 0.41784,-0.22721 0.92898,-0.25149 1.33945,-0.49176 0.39856,-0.23329 0.65717,-0.66027 1.04827,-0.90587 1.45951,-0.91657 3.8366,-1.76301 5.61986,-1.55294 0.41832,0.0493 0.79258,0.28608 1.19386,0.41412 0.35607,0.11361 0.75377,0.12361 1.07739,0.31059 0.27937,0.1614 0.40915,0.50856 0.66973,0.69882 0.74875,0.54669 2.97882,1.42824 3.43598,2.01881 0.47982,0.61983 1.66777,2.71359 2.41684,3.54586 0.99778,1.10861 0.46059,-0.12103 1.33945,1.47529 0.50399,0.91544 0.68151,1.98801 1.19385,2.8988 0.17072,0.3035 0.54141,0.46587 0.69885,0.77647 0.24936,0.49194 0.27116,1.07475 0.49501,1.57881 1.05788,2.38212 0.49944,0.40796 1.60152,2.48469 0.76116,1.4343 1.20583,3.07409 1.71799,4.60703 0.5224,1.56358 1.23562,3.06575 1.65974,4.6588 0.17833,0.66981 0.20238,1.37431 0.37855,2.0447 0.13554,0.51577 0.41793,0.98533 0.55324,1.50117 0.5603,2.13595 1.1276,4.52546 1.63066,6.70349 1.64052,7.10278 -0.69544,-2.57003 0.40765,3.31292 0.27279,1.45482 0.78076,2.88592 1.04827,4.34821 0.11903,0.65067 0.10664,1.32409 0.26207,1.96704 0.0991,0.41003 0.32999,0.77647 0.49499,1.16471 0.20384,0.54352 0.48313,1.06445 0.6115,1.63057 0.12638,0.55733 -0.004,1.15657 0.14559,1.70822 0.0995,0.3678 0.45459,0.6246 0.58239,0.98353 0.29807,0.83723 0.31227,1.75101 0.52413,2.6141 0.40912,1.66675 0.84686,3.33481 1.36856,4.96939 0.2865,0.89769 1.01592,1.72676 1.25208,2.61411 0.12245,0.46007 0.01,0.95955 0.11648,1.42351 0.1349,0.58625 0.47331,0.87593 0.72797,1.37176 0.58305,1.1352 0.89828,2.45041 1.48504,3.57174 0.60437,1.15498 1.46442,1.05985 2.03831,2.71763"
       id="path22" />
    <path
       style="fill:none;stroke:#000000;stroke-width:0.264583px;stroke-linecap:butt;stroke-linejoin:miter;stroke-opacity:1"
       d="m 20.158988,224.75746 c 1.420366,-0.25177 2.760442,0.36044 4.134827,0.5694 2.359974,0.35881 4.347444,-0.42113 6.289594,-1.65646 0.551199,-0.3506 1.051177,-0.78544 1.630635,-1.08705 1.419538,-0.73887 3.211971,-0.90427 4.571606,-1.75999 0.455462,-0.28666 3.33343,-2.66011 4.775428,-3.07998 1.252873,-0.36481 2.550697,-0.55517 3.814524,-0.88 1.947106,-0.50044 3.826891,-1.42192 5.823696,-1.75999 1.401622,-0.2373 1.614858,0.0191 3.028325,0.0518 0.867762,0.02 0.932792,-0.32803 1.980057,-0.15529 0.538129,0.0888 1.017302,0.39928 1.543281,0.54352 0.698703,0.1916 1.462868,0.0698 2.154766,0.2847 1.917428,0.59549 4.2438,1.76649 5.969291,2.71763 1.255721,0.69219 2.31467,1.73756 3.55246,2.45882 0.732248,0.74189 1.834277,0.62305 2.678898,1.08705 1.01409,0.5571 1.971834,1.21478 2.911848,1.8894 0.678829,0.48717 1.080006,1.34916 1.834468,1.70822 0.916765,0.43632 1.940446,0.60546 2.882728,0.98353 1.109996,0.44535 1.420778,0.85477 2.445954,1.39764 1.73528,0.91889 3.424621,1.81964 5.212209,2.6141 2.296829,1.02078 4.119237,2.81253 6.522545,3.64939 1.556941,0.54215 3.195347,0.50027 4.804553,0.75058 5.842059,0.90873 9.927059,1.57417 15.811329,0.33647 2.70422,-0.5688 5.61113,-1.0946 8.15319,-2.19999 7.8922,-3.43183 -4.19157,1.29331 3.87275,-2.01881 1.38974,-0.57078 2.97294,-0.63393 4.30954,-1.31999 1.4548,-0.74672 2.71576,-1.82739 4.13482,-2.63999 5.17028,-2.96065 -1.29634,1.23029 3.84365,-1.52704 1.61111,-0.86428 3.10554,-1.93151 4.68808,-2.84705 1.20512,-0.69719 2.93751,-1.40696 4.1057,-2.1741 3.32078,-2.18073 0.3196,-0.8808 4.30954,-2.79528 4.28576,-2.05642 3.99651,-1.62971 8.38612,-3.4941 0.5691,-0.24171 1.0684,-0.64767 1.65975,-0.82823 0.56804,-0.17344 3.6498,-0.50236 4.25131,-0.62117 3.95533,-0.78128 7.89365,-1.56043 11.9677,-1.52706 0.74172,0.006 1.47138,0.2195 2.213,0.23295 0.69097,0.0125 1.37719,-0.18962 2.06741,-0.1553 0.70834,0.0352 1.39087,0.29162 2.09654,0.36236 0.58919,0.0591 1.18839,-0.0454 1.77623,0.0259 2.02998,0.24605 4.02376,0.8379 6.02752,1.19059 1.30164,0.2291 2.67068,0.11971 3.931,0.51764 2.5111,0.79283 4.74574,2.70599 7.19226,3.70115 0.51947,0.2113 1.13001,0.1614 1.63065,0.41412 2.29624,1.15911 3.54437,2.7218 5.59074,4.03762 0.8718,0.56057 1.85349,0.9336 2.73714,1.47529 1.15803,0.70988 2.20379,1.59744 3.49421,2.07057 2.08324,0.76383 4.0798,1.02252 6.2896,1.13882 1.02834,0.0541 2.06885,-0.0277 3.08655,0.12941 2.28435,0.79886 1.15418,0.54075 3.37776,0.82823"
       id="path24" />
    <path
       style="fill:none;stroke:#000000;stroke-width:0.264583px;stroke-linecap:butt;stroke-linejoin:miter;stroke-opacity:1"
       d="m 80.87104,195.92468 c -0.03882,0.2847 -0.15553,0.56944 -0.116472,0.85411 0.02294,0.16723 0.652629,0.90137 0.727962,1.03529 1.100486,1.95636 2.31181,3.24138 3.668929,5.2282 0.242422,0.35491 0.330009,0.79373 0.495014,1.19059 0.922089,1.28548 1.82213,2.58707 2.766264,3.85644 1.198242,1.61103 1.957588,3.47822 3.173915,5.07292 1.084286,1.42158 1.917856,2.80196 2.766258,4.37409 0.876398,1.624 1.683589,3.1556 2.708019,4.68468 1.07107,1.59869 1.813041,3.35143 2.79537,5.02114 0.614791,1.045 1.103081,2.16929 1.805341,3.15763 0.29135,0.41003 0.72695,0.71011 0.99003,1.13882 1.62116,2.6418 -0.61186,0.20217 1.45593,2.97645 0.16861,0.22623 0.44648,0.3451 0.66972,0.51765 0.3106,0.40549 0.65887,0.78472 0.9318,1.21646 0.99265,1.57023 1.96755,3.12492 2.9992,4.6588 0.55158,0.8201 1.13192,1.63424 1.83447,2.3294 0.20478,0.20263 0.53017,0.25641 0.72796,0.46588 1.02034,1.0806 1.62812,2.59294 2.59154,3.72704 1.03604,1.21957 -0.11303,-0.47256 0.96092,0.67294 0.6725,0.71731 0.92081,1.64072 1.36856,2.4588 0.0836,0.15273 0.28598,0.2261 0.34943,0.38823 0.11455,0.29274 -0.0594,0.69347 0.14559,0.93177 0.10163,0.11813 0.21048,0.24001 0.34942,0.31057 0.0779,0.0396 0.21923,-0.0761 0.26206,0 0.0622,0.11058 -0.16378,0.24464 -0.11647,0.36236 0.35867,0.89261 -0.003,1.1835 0.1456,2.01881 0.13849,0.77969 0.53596,1.64513 0.37853,2.48469 -0.11133,0.59373 -0.27844,1.24803 -0.23294,1.91529 0.0444,0.65057 0.28663,1.26258 0.14559,1.8894 -0.0266,0.11844 0.0637,0.25775 0.0291,0.36235 -0.0421,0.1273 -0.30467,0.39536 -0.1747,0.36236 0.0771,-0.0196 0.18164,-0.11256 0.23294,-0.0518 0.0671,0.0795 -0.20656,0.15973 -0.1747,0.25882 0.18433,0.57347 0.19103,1.40014 0.29117,1.78587 0.0259,0.0999 0.22648,0.13229 0.20383,0.23295 -0.15368,0.68315 -0.29727,-0.21463 -0.20383,-0.1553 0.0773,0.0491 0.22927,0.27013 0.14559,0.23294 -0.0748,-0.0332 -0.28975,-0.13656 -0.23294,-0.0776 0.23977,0.24863 0.0785,1.13881 -0.0582,1.13881 -0.19546,0 -0.0315,-0.10857 0,-0.1553 -0.24265,0.10353 -0.4853,0.20706 -0.72796,0.31059"
       id="path26" />
    <path
       style="fill:none;stroke:#000000;stroke-width:0.264583px;stroke-linecap:butt;stroke-linejoin:miter;stroke-opacity:1"
       d="m 59.614543,235.49857 c 0.669747,-0.57985 1.735545,-0.5242 2.475071,-0.90588 1.790144,-0.92391 3.139958,-2.63301 4.833673,-3.67527 1.35219,-0.83209 3.015734,-1.03067 4.426008,-1.75999 0.542597,-0.28061 0.970616,-0.74196 1.455925,-1.11293 0.582369,-0.35373 1.134457,-0.76296 1.74711,-1.06117 1.580258,-0.76921 3.293057,-1.23727 4.891905,-1.96705 1.671323,-0.76286 3.062348,-2.10567 4.775433,-2.7694 3.999979,-1.54979 -1.207442,1.79153 4.891905,-1.81176 0.598858,-0.35378 0.993659,-0.98594 1.572403,-1.37175 1.817888,-1.21188 4.176768,-1.61421 6.08576,-2.69175 1.507445,-0.85089 2.54616,-2.22749 4.163944,-2.92469 1.1552,-0.49785 1.44969,-0.16468 2.50419,-0.80235 1.61706,-0.97786 3.11191,-2.17006 4.74632,-3.13175 1.37637,-0.80985 2.83306,-0.7723 4.04746,-1.81175 1.43735,-1.23028 3.28027,-2.29437 5.00838,-3.10587 0.97932,-0.45987 2.30606,-0.67025 3.20304,-1.26822 0.64644,-0.43094 1.11479,-1.15262 1.74711,-1.6047 0.62265,-0.44517 1.25836,-0.41346 1.92181,-0.7247 0.43984,-0.20634 0.90726,-0.64868 1.33947,-0.80235 0.88719,-0.31544 -0.12918,0.33963 0.9609,-0.25882 1.25787,-0.69057 2.50929,-1.46998 3.75629,-2.09646 0.21913,-0.11009 0.28259,-0.40648 0.46589,-0.56941 0.2362,-0.20995 2.02512,-1.07779 1.86358,-0.64705"
       id="path28" />
    <path
       style="fill:none;stroke:#000000;stroke-width:0.264583px;stroke-linecap:butt;stroke-linejoin:miter;stroke-opacity:1"
       d="m 175.82644,191.29176 c -1.10403,1.17469 -0.76548,2.69821 -1.22298,4.08939 -0.0757,0.23034 -0.31648,0.38677 -0.37853,0.62117 -0.0974,0.36805 -0.0218,0.76378 -0.0874,1.13882 -0.24677,1.41204 -0.95344,4.56393 -1.45592,5.84938 -0.42723,1.09293 -1.23592,2.21309 -1.51416,3.36469 -0.16066,0.66491 -0.0736,1.36816 -0.17471,2.04469 -0.22335,1.49487 -0.75938,2.96535 -1.01915,4.45174 -0.064,0.36594 0.003,0.7466 -0.0582,1.11293 -0.0943,0.56075 -0.35414,1.09036 -0.40765,1.65647 -0.0448,0.47398 0.17823,0.95145 0.11647,1.42352 -0.0389,0.29746 -0.32097,0.51515 -0.40766,0.80235 -0.17692,0.58615 -0.28705,1.98616 -0.43678,2.58821 -0.27323,1.0987 -0.51027,1.17784 -0.72796,2.25176 -0.12123,0.59804 -0.0956,1.22468 -0.26207,1.81175 -0.5599,1.97514 -1.73115,3.81753 -2.27123,5.8235 -0.12684,0.47111 -0.13589,0.96627 -0.20383,1.4494 -0.18442,0.68157 -0.33956,1.37174 -0.55326,2.0447 -0.89573,2.82072 -1.93413,5.59583 -2.76626,8.4376 -0.51857,1.77097 -0.57196,3.77517 -1.22297,5.48702 -0.14576,0.38328 -0.4176,0.71696 -0.52413,1.11293 -0.15538,0.57755 -0.0716,2.02612 -0.26207,2.58823 -0.10831,0.31964 -0.45458,0.51586 -0.58237,0.82822 -0.11061,0.27036 -0.36032,1.90229 -0.4659,2.27764 -0.31704,1.12722 -0.89236,2.20353 -1.39768,3.18352 -0.41668,0.80808 -0.26102,2.06961 -0.90268,2.63997 -0.0324,0.0288 -0.35301,2.7726 -0.93179,3.28705"
       id="path30" />
    <path
       style="fill:none;stroke:#000000;stroke-width:0.264583px;stroke-linecap:butt;stroke-linejoin:miter;stroke-opacity:1"
       d="m 131.56633,230.6586 c 0.0971,0.31921 0.19413,0.63842 0.29119,0.95764 -0.0485,0.13804 -0.18606,0.2735 -0.14559,0.41411 0.3109,1.08024 0.53739,0.28529 0.58236,1.1647 0.0567,1.10911 0.20775,2.08155 0.34943,3.18351 0.10915,0.84892 -0.0617,1.67123 0.14559,2.51057 0.27064,1.0959 0.58013,3.27522 0.93179,4.11528 0.45211,1.07998 0.24351,-0.18252 0.40766,0.80235 0.1024,0.61439 -0.0117,1.52178 0.20383,2.09646 0.0939,0.25039 0.34884,0.42039 0.43678,0.67293 0.12771,0.36673 -0.18399,0.3241 0,0.56941 0.26238,0.34984 0.69077,0.55507 0.90268,0.93176 0.14919,0.26521 -0.097,0.62569 0.0291,0.90588 0.0914,0.20309 0.59189,0.82232 0.58237,0.95764 -0.008,0.11559 -0.1244,0.22667 -0.0874,0.33646 0.0204,0.0604 0.14534,-0.1342 0.1747,-0.0776 0.46608,0.89763 -0.51199,0.52944 0.72797,1.11294"
       id="path32" />
    <path
       style="fill:none;stroke:#000000;stroke-width:0.264583px;stroke-linecap:butt;stroke-linejoin:miter;stroke-opacity:1"
       d="m 69.427478,221.00457 c -0.174712,-1.10432 -0.462224,-2.19662 -0.524134,-3.31296 -0.0011,-0.0193 0.849683,-1.32393 0.873551,-1.7341 0.01857,-0.31927 -0.10346,-0.64106 -0.05823,-0.95764 0.135633,-0.94939 0.686294,-2.15264 0.902671,-3.13175 0.182917,-0.82771 0.08557,-1.68659 0.174709,-2.51058 0.01746,-0.16144 0.458457,-1.15531 0.465894,-1.19058 0.241364,-1.1442 0.184754,-2.80711 -0.145589,-3.90821 -0.205076,-0.68357 -0.152485,-1.44718 -0.407657,-2.14822 -0.381611,-1.04843 -1.110639,-1.93958 -1.74711,-2.74352 -0.526222,-0.66468 -0.940832,-1.52555 -1.077386,-1.24234 -0.03922,0.0813 0.121664,0.13397 0.17471,0.20705 0.141272,0.19464 0.271775,0.39686 0.407662,0.59529"
       id="path34" />
  </g>
</svg>
